<?xml version="1.0" encoding="UTF-8" standalone="no"?>
<svg
   xmlns:dc="http://purl.org/dc/elements/1.1/"
   xmlns:cc="http://creativecommons.org/ns#"
   xmlns:rdf="http://www.w3.org/1999/02/22-rdf-syntax-ns#"
   xmlns:svg="http://www.w3.org/2000/svg"
   xmlns="http://www.w3.org/2000/svg"
   xmlns:sodipodi="http://sodipodi.sourceforge.net/DTD/sodipodi-0.dtd"
   xmlns:inkscape="http://www.inkscape.org/namespaces/inkscape"
   width="550"
   height="150"
   viewBox="0 0 145.52083 39.687501"
   version="1.1"
   id="svg8"
   inkscape:version="1.0.1 (3bc2e813f5, 2020-09-07)"
   sodipodi:docname="testlog.svg">
  <defs
     id="defs2" />
  <sodipodi:namedview
     id="base"
     pagecolor="#ffffff"
     bordercolor="#666666"
     borderopacity="1.0"
     inkscape:pageopacity="0.0"
     inkscape:pageshadow="2"
     inkscape:zoom="0.49497475"
     inkscape:cx="484.47083"
     inkscape:cy="715.37931"
     inkscape:document-units="mm"
     inkscape:current-layer="layer1"
     inkscape:document-rotation="0"
     showgrid="false"
     units="px"
     inkscape:window-width="1920"
     inkscape:window-height="1040"
     inkscape:window-x="0"
     inkscape:window-y="0"
     inkscape:window-maximized="0" />
  <metadata
     id="metadata5">
    <rdf:RDF>
      <cc:Work
         rdf:about="">
        <dc:format>image/svg+xml</dc:format>
        <dc:type
           rdf:resource="http://purl.org/dc/dcmitype/StillImage" />
        <dc:title></dc:title>
      </cc:Work>
    </rdf:RDF>
  </metadata>
  <g
     inkscape:label="Layer 1"
     inkscape:groupmode="layer"
     id="layer1">
    <path
       style="fill:#ffffff;stroke-width:0.264583"
       d="m 4.1483326,34.054946 v -1.19063 H 20.949373 37.750414 v 1.19063 1.19062 H 20.949373 4.1483326 Z M 45.42333,26.911196 v -4.10105 h 3.175 3.175 v 0.79375 0.79375 h -2.248959 -2.248958 v 0.79375 0.79375 h 1.984375 1.984375 v 0.79375 0.79375 h -1.984375 -1.984375 v 0.92605 0.92604 h 2.248958 2.248959 v 0.79375 0.79375 h -3.175 -3.175 z m 8.995833,-0.0152 v -4.11625 l 1.073457,0.0814 c 1.072485,0.0813 1.074375,0.0834 2.087874,2.33031 0.55793,1.23693 1.108834,2.22911 1.224232,2.20483 0.115398,-0.0243 0.657329,-1.0363 1.204294,-2.24896 0.991841,-2.19898 0.997323,-2.20504 2.067935,-2.28618 l 1.073457,-0.0814 v 4.11625 4.11626 h -0.79375 -0.79375 v -2.69875 c 0,-1.48432 -0.09863,-2.58564 -0.219167,-2.4474 -0.120544,0.13825 -0.612871,1.17409 -1.09406,2.30188 -0.718106,1.68305 -0.980625,2.05052 -1.464898,2.05052 -0.484272,0 -0.746791,-0.36747 -1.464897,-2.05052 -0.48119,-1.12779 -0.973516,-2.16363 -1.09406,-2.30188 -0.120541,-0.13824 -0.219167,0.96308 -0.219167,2.4474 v 2.69875 h -0.79375 -0.79375 z m 11.641666,0.0152 v -4.10105 h 3.174999 3.175 v 0.79375 0.79375 H 70.16187 67.912912 v 0.79375 0.79375 h 1.984375 1.984375 v 0.79375 0.79375 h -1.984375 -1.984375 v 0.92605 0.92604 h 2.248958 2.248958 v 0.79375 0.79375 h -3.175 -3.174999 z m 8.731253,0 v -4.10105 h 2.62553 c 2.43103,0 2.68517,0.0502 3.43058,0.67741 1.34443,1.13126 1.35083,3.50009 0.012,4.43785 -0.44611,0.31247 -0.42866,0.40381 0.30104,1.57619 0.42603,0.68447 0.7746,1.30438 0.7746,1.37756 0,0.0732 -0.45971,0.13308 -1.02157,0.13308 -0.94078,0 -1.07151,-0.0941 -1.65319,-1.19063 -0.5504,-1.03751 -0.74226,-1.19062 -1.49197,-1.19062 -0.84328,0 -0.86035,0.0236 -0.86035,1.19062 v 1.19063 h -1.05833 -1.05833 z m 4.87588,-0.28349 c 0.48335,-0.48335 0.52605,-1.00046 0.14189,-1.71828 -0.21433,-0.40048 -0.55957,-0.51178 -1.5875,-0.51178 h -1.31361 v 1.32292 1.32292 h 1.17173 c 0.71242,0 1.3347,-0.16298 1.58749,-0.41578 z m 6.62037,4.01236 c -1.09007,-0.4748 -2.13164,-1.76758 -2.34639,-2.91229 -0.68336,-3.64262 3.45304,-6.28123 6.92979,-4.42053 0.6992,0.3742 0.71947,0.52194 0.17771,1.29541 -0.38648,0.55177 -0.45776,0.56335 -1.17749,0.19116 -1.93177,-0.99896 -3.96738,0.0198 -3.96738,1.98548 0,1.7715 1.43831,2.89459 3.20896,2.50569 0.69691,-0.15307 0.75979,-0.26367 0.75979,-1.33649 0,-1.12316 0.0315,-1.1696 0.79375,-1.1696 h 0.79375 v 1.69107 1.69106 l -1.06369,0.4256 c -1.27809,0.5114 -3.00584,0.53387 -4.1088,0.0534 z m 7.81832,-3.72887 v -4.10105 h 3.175 3.174998 v 0.79375 0.79375 h -2.248948 -2.24896 v 0.79375 0.79375 h 1.98437 1.98438 v 0.79375 0.79375 h -1.98438 -1.98437 v 0.92605 0.92604 h 2.24896 2.248948 v 0.79375 0.79375 h -3.174998 -3.175 z m 8.995848,0 v -4.10105 l 0.85989,0.008 c 0.77724,0.008 1.03793,0.25077 2.71198,2.53027 l 1.85208,2.52191 0.0757,-2.53026 0.0757,-2.53027 h 0.91646 0.91646 v 4.10104 4.10105 h -0.87116 c -0.79421,0 -1.03376,-0.22129 -2.71198,-2.5052 -1.01245,-1.37785 -1.93012,-2.50894 -2.03926,-2.51354 -0.10914,-0.005 -0.19843,1.12275 -0.19843,2.5052 v 2.51354 h -0.79375 -0.79375 z m 12.02542,3.74354 c -2.94711,-1.33724 -3.22326,-5.64227 -0.47104,-7.34324 1.14241,-0.70605 3.28915,-0.77468 4.50847,-0.14415 1.10802,0.57298 1.17807,0.73634 0.62828,1.46521 -0.44853,0.59463 -0.49524,0.60155 -1.28908,0.19104 -1.89651,-0.98072 -3.76039,-0.0745 -3.76039,1.82838 0,1.30583 0.4034,1.95346 1.50292,2.41287 0.85007,0.35518 1.02011,0.34504 1.95288,-0.11646 l 1.02173,-0.50551 0.55685,0.59275 0.55686,0.59275 -0.85315,0.60749 c -1.04103,0.74128 -3.18849,0.94786 -4.35433,0.41887 z m 7.28916,-3.74354 v -4.10105 h 0.92604 0.92604 v 4.10105 4.10104 h -0.92604 -0.92604 z m 4.05711,3.24114 c 0.19803,-0.47294 0.99308,-2.31841 1.76677,-4.10104 l 1.40672,-3.24115 1.08105,0.004 1.08106,0.004 1.5875,3.84633 c 0.87312,2.11548 1.62718,3.95912 1.67569,4.09699 0.0485,0.13787 -0.37187,0.25067 -0.93418,0.25067 -0.893,0 -1.06029,-0.10044 -1.32198,-0.79375 -0.29455,-0.78034 -0.33168,-0.79375 -2.19766,-0.79375 -1.86597,0 -1.90311,0.0134 -2.19765,0.79375 -0.26039,0.68983 -0.43104,0.79375 -1.30349,0.79375 h -1.00388 z m 4.91271,-3.70417 c -0.56642,-1.43717 -0.70839,-1.68691 -0.85231,-1.4993 -0.0465,0.0606 -0.33758,0.73532 -0.6468,1.4993 l -0.56222,1.38907 h 1.30439 1.3044 z m 5.58226,0.46303 v -4.10105 h 0.92604 0.92604 v 3.16291 3.16292 l 1.78594,0.0782 1.78594,0.0782 0.0829,0.85989 0.0829,0.8599 h -2.79489 -2.79489 z m -125.941661,-6.4823 v -9.525 h 1.852083 1.852083 v 9.525 9.525 h -1.852083 -1.852083 z m 5.027083,0 v -9.525 h 1.852083 1.852083 v 9.525 9.525 h -1.852083 -1.852083 z m 5.291666,0 v -9.525 h 1.852083 1.852084 v 9.525 9.525 h -1.852084 -1.852083 z m 5.027083,0 v -9.525 h 1.852083 1.852084 v 9.525 9.525 h -1.852084 -1.852083 z m 18.264464,-2.05052 c 0.0045,-0.10914 0.753438,-1.92484 1.664269,-4.03489 l 1.656054,-3.83646 1.08345,-0.0799 1.083452,-0.0799 0.805075,1.93196 c 0.442788,1.06257 1.225862,2.91422 1.740159,4.11477 l 0.935087,2.18281 H 52.54328 c -0.942189,0 -1.093292,-0.0896 -1.338762,-0.79375 -0.273392,-0.78424 -0.299847,-0.79375 -2.209313,-0.79375 -1.909466,0 -1.935922,0.01 -2.209313,0.79375 -0.237408,0.68104 -0.410157,0.79375 -1.216507,0.79375 -0.516892,0 -0.936109,-0.0893 -0.93159,-0.19844 z m 5.402064,-3.54883 c -0.317936,-1.00173 -0.915032,-2.33815 -1.044654,-2.33815 -0.129622,0 -0.726718,1.33642 -1.044655,2.33815 -0.168357,0.53045 -0.09201,0.57227 1.044655,0.57227 1.136663,0 1.213011,-0.0418 1.044654,-0.57227 z m 6.733534,3.1428 c -1.190466,-0.80044 -1.527466,-1.89457 -1.545547,-5.01793 l -0.01493,-2.57968 h 1.058333 1.058333 v 2.89541 c 0,2.6921 0.04129,2.92434 0.588039,3.30729 0.802074,0.5618 1.688039,0.51705 2.322378,-0.11729 0.46197,-0.46197 0.529166,-0.88194 0.529166,-3.30729 v -2.77812 h 0.926042 0.926042 v 2.92355 c 0,2.13633 -0.111599,3.13937 -0.414449,3.72501 -0.808125,1.56274 -3.755096,2.07749 -5.433404,0.94905 z m 7.964519,0.47314 c 0,-0.0722 0.595313,-0.96564 1.322917,-1.98534 0.727604,-1.01969 1.322916,-1.97916 1.322916,-2.13214 0,-0.15298 -0.455514,-0.95622 -1.012256,-1.78498 -1.547019,-2.30287 -1.525979,-2.16829 -0.338987,-2.16829 0.963666,0 1.138346,0.11207 1.89987,1.21891 l 0.838631,1.2189 0.79289,-1.2189 c 0.740799,-1.13883 0.868095,-1.21891 1.937623,-1.21891 h 1.144733 l -1.301218,1.88886 c -0.715671,1.03888 -1.223833,2.02114 -1.129252,2.18281 0.09458,0.16168 0.74985,1.15716 1.456153,2.21218 l 1.284189,1.91823 h -1.171106 c -1.115751,0 -1.211234,-0.0625 -2.02002,-1.32292 -0.466902,-0.7276 -0.925798,-1.32077 -1.01977,-1.31816 -0.09397,0.003 -0.558723,0.59793 -1.032785,1.32292 -0.795854,1.21711 -0.942904,1.31816 -1.918229,1.31816 -0.580964,0 -1.056299,-0.0591 -1.056299,-0.13133 z m 10.31875,-3.96971 v -4.10104 h 0.92604 0.92604 v 4.10104 4.10104 h -0.92604 -0.92604 z m 4.49791,0 v -4.10104 h 0.92604 0.92604 v 3.16291 3.16291 l 1.78594,0.0782 1.78594,0.0782 0.0829,0.85989 0.0829,0.8599 h -2.79489 -2.79489 z m 7.67292,0 v -4.10104 h 0.92604 0.92604 v 4.10104 4.10104 h -0.92604 -0.92604 z m 6.06469,3.49943 c -1.53238,-1.03267 -2.16073,-2.22122 -2.03069,-3.84113 0.19384,-2.41453 1.78663,-3.83494 4.30037,-3.83494 3.35434,0 5.351288,3.07787 3.93432,6.0639 -0.96262,2.02859 -4.2994,2.89568 -6.204,1.61217 z m 3.43618,-1.37029 c 1.50471,-0.77811 1.70689,-3.05477 0.36501,-4.11029 -1.35767,-1.06795 -3.22415,-0.49826 -3.76816,1.15011 -0.3621,1.09716 -0.0593,2.00272 0.92966,2.78067 0.84194,0.66227 1.45403,0.7067 2.47349,0.17951 z M 75.057972,9.3825466 c 8e-4,-0.10914 0.27071,-0.5350697 0.59997,-0.9465197 0.49118,-0.6137894 0.72842,-0.7155094 1.3216,-0.5666294 0.91829,0.2304797 0.90842,0.4166197 -0.0601,1.1326591 -0.75731,0.5598997 -1.86417,0.7861497 -1.86148,0.38049 z M 4.1483326,7.5966075 V 6.4059881 H 20.949373 37.750414 V 7.5966075 8.7872369 H 20.949373 4.1483326 Z"
       id="path847"
       sodipodi:nodetypes="ccccccccccccccccccccccccccccccccccccssssccccccssssssscccccccccccccccccccccccccccccccsssssssssccccssscccsscsssssssscccsccccccccccccccccccccccccccccccscccccccsscsccccsssssssscccsscccccccccsscccssssssscsssscccsccccccccccccccccccccccccccccccccccccccccccccccccccscccsscssscsccssssssscccsssscccsssssssssscsscssscsscssscccccccccccccccccccccccccccccccssssssssssssssssccccccccc" />
  </g>
</svg>
